<svg xmlns="http://www.w3.org/2000/svg" xmlns:svg="http://www.w3.org/2000/svg" id="svg8" width="132mm" height="668.976" version="1.1" viewBox="0 0 132 177"><defs id="defs2"><marker id="marker2837" orient="auto" refX="0" refY="0" style="overflow:visible"><path id="path2835" d="M 0,0 5,-5 -12.5,0 5,5 Z" style="fill:#adbb84;fill-opacity:1;fill-rule:evenodd;stroke:#adbb84;stroke-width:1.00000003pt;stroke-opacity:1" transform="matrix(-0.4,0,0,-0.4,-4,0)"/></marker><marker id="Arrow2Lend" orient="auto" refX="0" refY="0" style="overflow:visible"><path id="path1736" style="fill:#adbb84;fill-opacity:1;fill-rule:evenodd;stroke:#adbb84;stroke-width:.625;stroke-linejoin:round;stroke-opacity:1" d="M 8.7185878,4.0337352 -2.2072895,0.01601326 8.7185884,-4.0017078 c -1.7454984,2.3720609 -1.7354408,5.6174519 -6e-7,8.035443 z" transform="matrix(-1.1,0,0,-1.1,-1.1,0)"/></marker><marker style="overflow:visible" id="marker2301" orient="auto" refX="0" refY="0"><path transform="matrix(-0.3,0,0,-0.3,0.69,0)" style="fill:#adbb84;fill-opacity:1;stroke:#adbb84;stroke-opacity:1" id="path2299" d="M 8.72,4.03 -2.21,0.02 8.72,-4 c -1.75,2.37 -1.74,5.62 0,8.03 z"/></marker><marker style="overflow:visible" id="marker2249" orient="auto" refX="0" refY="0"><path transform="matrix(0.3,0,0,0.3,-0.69,0)" style="fill:#000;fill-opacity:1;stroke:#000;stroke-opacity:1" id="path2247" d="M 8.72,4.03 -2.21,0.02 8.72,-4 c -1.75,2.37 -1.74,5.62 0,8.03 z"/></marker><marker style="overflow:visible" id="marker2185" orient="auto" refX="0" refY="0"><path transform="matrix(-0.3,0,0,-0.3,0.69,0)" style="fill:#000;fill-opacity:1;stroke:#000;stroke-opacity:1" id="path2183" d="M 8.72,4.03 -2.21,0.02 8.72,-4 c -1.75,2.37 -1.74,5.62 0,8.03 z"/></marker><marker style="overflow:visible" id="marker2145" orient="auto" refX="0" refY="0"><path transform="matrix(0.3,0,0,0.3,-0.69,0)" style="fill:#000;fill-opacity:1;stroke:#000;stroke-opacity:1" id="path2143" d="M 8.72,4.03 -2.21,0.02 8.72,-4 c -1.75,2.37 -1.74,5.62 0,8.03 z"/></marker><marker style="overflow:visible" id="marker1412" orient="auto" refX="0" refY="0"><path transform="matrix(-0.3,0,0,-0.3,0.69,0)" style="fill:#adbb84;fill-opacity:1;stroke:#adbb84;stroke-opacity:1" id="path1410" d="M 8.72,4.03 -2.21,0.02 8.72,-4 c -1.75,2.37 -1.74,5.62 0,8.03 z"/></marker><marker style="overflow:visible" id="marker1384" orient="auto" refX="0" refY="0"><path transform="matrix(0.3,0,0,0.3,-0.69,0)" style="fill:#000;fill-opacity:1;stroke:#000;stroke-opacity:1" id="path1382" d="M 8.72,4.03 -2.21,0.02 8.72,-4 c -1.75,2.37 -1.74,5.62 0,8.03 z"/></marker><marker id="Arrow2Sstart" orient="auto" refX="0" refY="0" style="overflow:visible"><path id="Arrow2SstartPath" d="M 8.72,4.03 -2.21,0.02 8.72,-4 c -1.75,2.37 -1.74,5.62 0,8.03 z" style="fill:#000;fill-opacity:1;stroke:#000;stroke-opacity:1" transform="matrix(0.3,0,0,0.3,-0.69,0)"/></marker><marker id="Arrow2Send" orient="auto" refX="0" refY="0" style="overflow:visible"><path id="Arrow2SendPath" d="M 8.72,4.03 -2.21,0.02 8.72,-4 c -1.75,2.37 -1.74,5.62 0,8.03 z" style="fill:#000;fill-opacity:1;stroke:#000;stroke-opacity:1" transform="matrix(-0.3,0,0,-0.3,0.69,0)"/></marker></defs><metadata id="metadata5"/><g id="layer1" transform="translate(-3.4748586,38.033545)" style="display:inline"><g id="g1058" transform="matrix(9.9999988,0,0,9.9999988,-40.27372,-1241.6974)" style="stroke-width:.10000001"><path style="fill:#000;fill-opacity:1;stroke-width:.10000001" id="path988" d="m 7.7248564,134.7164 -3.249998,3.25 2e-6,-2 3.249996,-3.25 3.2499996,3.25 3.25,-3.25 3.250004,3.25 -1e-6,2 -3.250003,-3.25 -3.25,3.25 z m -0.75,-5.5 1,-1 2.9999996,3 3,-3 1,1 -4,4 z m 0,-4.75 3.9999996,-4 v 2 l -1.9999996,2 1.9999996,2 3,-3 1,1 -4,4 z"/><path id="path990" d="m 6.9748564,124.4664 3.9999996,4 v 2.75 l -2.9999996,-3 z" style="opacity:1;fill:#971af7;fill-opacity:1;stroke:none;stroke-width:.00762;stroke-linecap:butt;stroke-linejoin:miter;stroke-miterlimit:4;stroke-dasharray:none;stroke-dashoffset:0;stroke-opacity:1"/><path style="opacity:1;fill:#971af7;fill-opacity:1;stroke:none;stroke-width:.00762;stroke-linecap:butt;stroke-linejoin:miter;stroke-miterlimit:4;stroke-dasharray:none;stroke-dashoffset:0;stroke-opacity:1" id="path992" d="m 6.9748564,129.2164 3.9999996,4 v 2.75 l -3.2499996,-3.25 z"/><path style="opacity:1;fill:#ff94e3;fill-opacity:1;stroke:none;stroke-width:.00762;stroke-linecap:butt;stroke-linejoin:miter;stroke-miterlimit:4;stroke-dasharray:none;stroke-dashoffset:0;stroke-opacity:1" id="path994" d="m 14.974861,124.46639 -4,4 v 2.75 l 3,-3 z"/><path id="path996" d="m 14.974861,129.21639 -4,4 v 2.75 l 3.25,-3.25 z" style="opacity:1;fill:#ff94e3;fill-opacity:1;stroke:none;stroke-width:.00762;stroke-linecap:butt;stroke-linejoin:miter;stroke-miterlimit:4;stroke-dasharray:none;stroke-dashoffset:0;stroke-opacity:1"/></g></g><g id="layer2" style="display:none" transform="translate(-3.4748586,155.03155)"><path style="display:inline;fill:#48b466;fill-opacity:.61643832;fill-rule:evenodd;stroke:#3d8943;stroke-width:.008;stroke-linecap:butt;stroke-linejoin:miter;stroke-miterlimit:4;stroke-dasharray:none;stroke-opacity:1" id="path1553" d="m 12,78.74999 4.000001,18.75 4,-18.75 z"/><path id="path1557" d="m 12.750001,84.249995 3.25,15.234369 L 19.25,84.249995 Z" style="display:inline;fill:#48b466;fill-opacity:.61643832;fill-rule:evenodd;stroke:#3d8943;stroke-width:.008;stroke-linecap:butt;stroke-linejoin:miter;stroke-miterlimit:4;stroke-dasharray:none;stroke-opacity:1"/><path style="display:inline;fill:#48b466;fill-opacity:.61643832;fill-rule:evenodd;stroke:#3d8943;stroke-width:.008;stroke-linecap:butt;stroke-linejoin:miter;stroke-miterlimit:4;stroke-dasharray:none;stroke-opacity:1" id="path1559" d="m 22.500001,87.499991 -6.5,11.984373 L 19.25,84.249995 Z"/><path id="path1561" d="m 19.250001,86.999991 -3.25,3.25 L 19.25,84.249995 Z" style="display:inline;fill:#48b466;fill-opacity:.61643832;fill-rule:evenodd;stroke:#3d8943;stroke-width:.008;stroke-linecap:butt;stroke-linejoin:miter;stroke-miterlimit:4;stroke-dasharray:none;stroke-opacity:1"/><path style="fill:none;fill-rule:evenodd;stroke:#3d8943;stroke-width:.008;stroke-linecap:butt;stroke-linejoin:miter;stroke-miterlimit:4;stroke-dasharray:none;stroke-opacity:1" id="path1563" d="m 22.500001,91.749991 -4,-4"/><path id="path3058" d="M 64.000003,209.49799 H 47.500002 l 1.25,3.5 h 15.250001 z" transform="translate(0,-116.998)" style="display:inline;opacity:1;fill:#6c6aab;fill-opacity:.47031962;stroke:none;stroke-width:.07619999;stroke-linecap:butt;stroke-linejoin:miter;stroke-miterlimit:4;stroke-dasharray:none;stroke-dashoffset:0;stroke-opacity:1"/></g></svg>